#!OML:ASF C:\ViconDB\ViconDB\414\Spring2016\041811\Spring2016.ASF
:FULLY-SPECIFIED
:DEGREES
247
root 7.65211 16.2548 -31.0526 -177.651 0.389798 181.627
lowerback 32.481 0.208623 -0.442473
upperback 5.28591 1.81831 0.489514
thorax -10.9131 1.52613 -0.0630396
lowerneck -11.886 -6.07448 -15.6904
upperneck 3.77071 -7.69968 19.8189
head 4.55235 -3.33771 8.28031
rclavicle -1.16041e-014 4.96962e-015
rhumerus -48.192 -7.1614 -83.7592
rradius 53.5594
rwrist 14.1168
rhand -38.6405 -17.7584
rfingers 7.12502
rthumb -11.657 -47.4141
lclavicle -1.16041e-014 4.96962e-015
lhumerus -50.9326 -0.566937 80.5567
lradius 43.8367
lwrist -10.1171
lhand -32.2549 13.1505
lfingers 7.12502
lthumb -5.49487 43.0592
rfemur -47.967 -16.0066 23.557
rtibia 66.8011
rfoot -10.6457 -7.41894
rtoes -7.9571
lfemur -50.5932 17.2105 -12.9484
ltibia 60.645
lfoot -10.916 -7.23623
ltoes -7.50105
248
root 7.64228 15.9283 -31.2565 -178.014 0.012103 181.356
lowerback 33.2424 -0.02174 -0.54541
upperback 5.38139 1.55397 0.392264
thorax -11.1065 1.43842 -0.0300662
lowerneck -12.0038 -6.03649 -15.549
upperneck 3.26851 -7.59332 19.7452
head 4.39501 -3.29691 8.23492
rclavicle 4.42296e-015 -6.33626e-015
rhumerus -48.327 -8.53186 -83.4108
rradius 50.2596
rwrist 15.6774
rhand -37.9793 -17.6973
rfingers 7.12502
rthumb -11.0193 -47.3881
lclavicle 4.42296e-015 -6.33626e-015
lhumerus -50.0976 1.69351 80.3724
lradius 39.5898
lwrist -11.0041
lhand -32.2274 13.8946
lfingers 7.12502
lthumb -5.46833 43.804
rfemur -49.9596 -17.1729 23.0268
rtibia 71.6603
rfoot -10.3411 -8.76343
rtoes -6.54358
lfemur -52.9104 16.8709 -13.0467
ltibia 65.4829
lfoot -12.4327 -7.13948
ltoes -7.30142
249
root 7.63664 15.6347 -31.4838 -177.635 -0.412191 181.446
lowerback 33.2766 1.59247 0.834113
upperback 5.26436 0.743868 0.568796
thorax -11.2243 -0.371617 0.00725127
lowerneck -11.9915 -5.93077 -15.581
upperneck 2.74637 -7.41572 19.9101
head 4.21673 -3.22625 8.31234
rclavicle 1.17531e-014 5.66536e-015
rhumerus -48.4259 -9.95347 -82.9605
rradius 46.968
rwrist 16.2158
rhand -37.1395 -17.529
rfingers 7.12502
rthumb -10.2092 -47.2612
lclavicle 1.17531e-014 5.66536e-015
lhumerus -49.2717 3.98235 79.93
lradius 35.4148
lwrist -11.7734
lhand -32.2876 14.6575
lfingers 7.12502
lthumb -5.52645 44.5655
rfemur -52.2836 -18.1545 23.0844
rtibia 75.9294
rfoot -9.35624 -9.95486
rtoes -6.02923
lfemur -55.6923 16.694 -12.9502
ltibia 69.9022
lfoot -14.2351 -7.16926
ltoes -8.0838
250
root 7.64701 15.366 -31.7211 -177.142 -0.864128 181.686
lowerback 33.0919 1.38238 0.979578
upperback 5.22307 0.566839 0.68624
thorax -11.1967 -0.444708 0.121004
lowerneck -12.106 -5.93593 -15.6664
upperneck 2.16363 -7.34243 19.9665
head 4.05764 -3.20496 8.34871
rclavicle -8.34896e-015 -2.00027e-015
rhumerus -48.3473 -11.8523 -82.1656
rradius 43.6326
rwrist 17.4089
rhand -36.0316 -17.3556
rfingers 7.12502
rthumb -9.14032 -47.1375
lclavicle -8.34896e-015 -2.00027e-015
lhumerus -48.2366 7.23768 78.7167
lradius 31.2596
lwrist -14.1818
lhand -31.9332 15.2951
lfingers 7.12502
lthumb -5.18423 45.2117
rfemur -54.155 -18.5726 23.3343
rtibia 79.5101
rfoot -7.90514 -10.9535
rtoes -5.15991
lfemur -58.1295 16.5148 -12.567
ltibia 73.7836
lfoot -15.9865 -7.36339
ltoes -8.58871
251
root 7.65879 15.1196 -31.9638 -176.723 -1.18031 181.791
lowerback 32.8917 1.30989 1.08002
upperback 5.19098 0.530825 0.64974
thorax -11.1505 -0.452614 0.0395655
lowerneck -12.0569 -5.91238 -15.5644
upperneck 1.49608 -7.29339 20.1237
head 3.84996 -3.2068 8.38639
rclavicle -3.21161e-015 2.88238e-015
rhumerus -48.424 -14.7966 -80.7686
rradius 40.0532
rwrist 20.6188
rhand -35.2241 -16.839
rfingers 7.12502
rthumb -8.36108 -46.6535
lclavicle -3.21161e-015 2.88238e-015
lhumerus -47.1818 11.3406 76.4413
lradius 27.1682
lwrist -18.2186
lhand -31.2531 15.7006
lfingers 7.12502
lthumb -4.52757 45.6322
rfemur -55.5195 -19.0687 23.4864
rtibia 82.5493
rfoot -6.68138 -12.0574
rtoes -4.08293
lfemur -59.8256 16.3868 -12.1868
ltibia 77.0497
lfoot -17.8978 -7.77149
ltoes -8.84455
252
root 7.67271 14.9129 -32.1947 -176.494 -1.39956 181.651
lowerback 33.1149 1.37469 0.849204
upperback 5.09288 0.551861 0.646312
thorax -11.3547 -0.429948 0.151924
lowerneck -12.3082 -5.98 -15.626
upperneck 1.25575 -7.33717 20.2115
head 3.83709 -3.22652 8.41775
rclavicle -3.91047e-015 -3.54085e-016
rhumerus -48.7917 -18.4257 -78.4216
rradius 36.3399
rwrist 25.9936
rhand -35.0657 -15.5928
rfingers 7.12502
rthumb -8.20815 -45.4134
lclavicle -3.91047e-015 -3.54085e-016
lhumerus -46.361 16.1601 73.6227
lradius 23.2494
lwrist -23.062
lhand -30.8314 16.1011
lfingers 7.12502
lthumb -4.1203 46.041
rfemur -56.3159 -19.6881 23.3494
rtibia 85.0268
rfoot -4.9052 -13.1543
rtoes -4.44865
lfemur -60.911 16.4924 -12.129
ltibia 79.8006
lfoot -20.0176 -7.88426
ltoes -10.0321
253
root 7.68002 14.7325 -32.4173 -176.241 -1.51822 181.505
lowerback 33.3243 1.4523 0.610209
upperback 4.96273 0.592146 0.638939
thorax -11.5897 -0.394831 0.256369
lowerneck -12.7274 -6.11472 -15.6021
upperneck 1.23815 -7.4768 20.1848
head 3.92533 -3.27977 8.38278
rclavicle -5.82532e-015 -6.00625e-015
rhumerus -49.507 -23.013 -75.0909
rradius 33.1416
rwrist 32.0302
rhand -34.388 -14.46
rfingers 7.12502
rthumb -7.55409 -44.3051
lclavicle -5.82532e-015 -6.00625e-015
lhumerus -45.6095 20.7062 70.9247
lradius 19.654
lwrist -27.4602
lhand -30.467 17.0119
lfingers 7.12502
lthumb -3.76843 46.9583
rfemur -56.864 -20.237 23.0451
rtibia 87.1126
rfoot -3.59156 -14.428
rtoes -4.57078
lfemur -61.7137 16.769 -12.2172
ltibia 82.1637
lfoot -21.821 -7.87661
ltoes -11.1167
254
root 7.69771 14.5784 -32.625 -176.01 -1.60624 181.364
lowerback 33.6943 1.62795 0.172156
upperback 4.7886 0.695154 0.704661
thorax -11.944 -0.323068 0.521175
lowerneck -12.9426 -6.1728 -15.6108
upperneck 0.936888 -7.5062 20.192
head 3.87891 -3.2981 8.37887
rclavicle -3.96327e-015 -5.65294e-015
rhumerus -50.4826 -27.4145 -71.4848
rradius 30.369
rwrist 37.8835
rhand -34.1962 -13.1811
rfingers 7.12502
rthumb -7.36894 -43.0327
lclavicle -3.96327e-015 -5.65294e-015
lhumerus -44.7621 24.766 68.6094
lradius 16.4735
lwrist -31.2481
lhand -29.901 18.2927
lfingers 7.12502
lthumb -3.2218 48.2481
rfemur -57.1578 -20.4157 22.736
rtibia 88.8367
rfoot -2.43916 -15.4359
rtoes -4.33993
lfemur -62.3766 17.0717 -12.113
ltibia 84.2139
lfoot -23.3049 -8.16367
ltoes -11.8043
